<?xml version="1.0" encoding="UTF-8"?>
<svg id="_Слой_2" data-name="Слой 2" xmlns="http://www.w3.org/2000/svg" viewBox="0 0 1000 241.76">
  <defs>
    <style>
      .cls-1 {
        fill: #ff4d00;
      }

      .cls-2 {
        fill: #0e0e26;
      }
    </style>
  </defs>
  <g id="_Слой_1-2" data-name="Слой 1">
    <g>
      <g>
        <path class="cls-2" d="m962.37,241.76H37.63c-20.75,0-37.63-16.88-37.63-37.63V37.63C0,16.88,16.88,0,37.63,0h924.74c20.75,0,37.63,16.88,37.63,37.63v166.51c0,20.75-16.88,37.63-37.63,37.63ZM37.63,25.13c-6.89,0-12.5,5.61-12.5,12.5v166.51c0,6.89,5.61,12.5,12.5,12.5h924.74c6.89,0,12.5-5.61,12.5-12.5V37.63c0-6.89-5.61-12.5-12.5-12.5H37.63Z"/>
        <g>
          <path class="cls-2" d="m923.23,108.54v24.69c6.02-.92,10.65-6.07,10.65-12.34s-4.63-11.43-10.65-12.34Z"/>
          <path class="cls-2" d="m919.43,108.54c-6.01.93-10.62,6.07-10.62,12.34s4.61,11.41,10.62,12.34v-24.68Z"/>
        </g>
        <g>
          <path class="cls-2" d="m76.69,108.54c-6.01.92-10.63,6.07-10.63,12.34s4.62,11.42,10.63,12.34v-24.68Z"/>
          <path class="cls-2" d="m80.49,108.54v24.68c6.01-.92,10.63-6.07,10.63-12.34s-4.62-11.42-10.63-12.34Z"/>
        </g>
      </g>
      <g>
        <path class="cls-2" d="m154.68,161.63h-25.08l41.69-77.84h33.23l41.59,77.84h-25.08l-7.52-14.11h-51.3l-7.52,14.11Zm33.23-61.96l-17.03,31.77h33.96l-16.93-31.77Z"/>
        <path class="cls-2" d="m321.33,83.89h23.61l.11,47.75c-.07.56-.11,1.08-.11,1.57s-.03,1.01-.1,1.57c0,.35-.04.63-.11.84-.07.49-.12.96-.16,1.41-.04.45-.12.92-.26,1.41,0,.28-.04.46-.11.52-.63,3.07-1.64,5.75-3.03,8.05,0,.14-.07.28-.21.42-.42.7-.91,1.39-1.46,2.09-.07.14-.21.31-.42.52-1.19,1.46-2.54,2.77-4.08,3.92-1.53,1.15-3.24,2.21-5.12,3.19-.28.14-.49.21-.63.21-.98.49-1.88.87-2.72,1.15-.14.07-.24.1-.31.1s-.17.04-.31.11c-1.6.56-3.26,1.03-4.96,1.41-1.71.38-3.57.68-5.59.89-.07.07-.21.1-.42.1-.63.07-1.25.12-1.88.16-.63.03-1.29.09-1.98.16h-.94c-.7.07-1.38.12-2.04.16-.66.03-1.34.05-2.04.05h-21.53c-13.1.14-23.06-2.26-29.88-7.21-.14-.14-.3-.28-.47-.42-.17-.14-.33-.28-.47-.42-.28-.21-.56-.42-.84-.63s-.56-.45-.84-.73c-.21-.21-.42-.42-.63-.63-.21-.21-.42-.45-.63-.73-.42-.42-.73-.77-.94-1.04l-1.25-1.88c-.21-.28-.38-.56-.52-.84-.28-.35-.51-.71-.68-1.1-.17-.38-.37-.75-.58-1.1-.07-.21-.17-.45-.31-.73-.14-.42-.3-.85-.47-1.31-.17-.45-.33-.92-.47-1.41,0-.07-.02-.14-.05-.21-.03-.07-.05-.17-.05-.31-.14-.49-.26-.98-.36-1.46-.11-.49-.23-1.01-.37-1.57,0-.07-.02-.14-.05-.21s-.05-.14-.05-.21c-.21-1.19-.31-2.33-.31-3.45l-.11-.11v-50.05h23.62l.1,44.72v.1c0,.35.02.66.05.94s.09.59.16.94v.21c.14.7.28,1.22.42,1.57v.31c.14.28.23.52.26.73s.12.45.26.73c.07.07.11.12.11.16s.03.09.1.16c.28.56.49.94.63,1.15.07.14.12.23.16.26s.09.12.16.26l.63.94c.14.14.23.25.26.31.03.07.12.17.26.32l.63.63c.21.21.52.45.94.73.07.14.24.28.52.42,3.62,2.65,8.88,3.94,15.78,3.87h12.49c.38,0,.75-.03,1.1-.1h.52c.35,0,.68-.02.99-.05s.64-.09.99-.16h.31c2.02-.21,3.87-.63,5.54-1.25.14,0,.24-.03.31-.1.49-.07.98-.24,1.46-.52.07-.07.12-.11.16-.11.03,0,.09-.03.16-.1,1.95-.9,3.59-2.16,4.91-3.76l.21-.21c.14-.21.28-.4.42-.57.14-.17.28-.37.42-.58,0-.14.03-.21.1-.21.7-1.25,1.22-2.68,1.57-4.29,0-.07.02-.12.05-.16.03-.03.05-.09.05-.16.07-.21.1-.43.1-.68s.03-.5.11-.78v-.42c.07-.28.1-.56.1-.84v-44.41Z"/>
        <path class="cls-2" d="m349.65,83.79h97.17v16.09h-36.78v61.75h-23.61v-61.75h-36.78v-16.09Z"/>
        <g>
          <path class="cls-2" d="m558.7,134.05v-.11l-.11-20.17c0-.56.02-1.08.05-1.57.03-.49.05-1.01.05-1.57.07-.14.1-.38.1-.73.07-.56.12-1.06.16-1.51.03-.45.12-.89.26-1.31,0-.14.01-.24.05-.32.03-.07.05-.17.05-.31.35-1.46.75-2.85,1.2-4.18.45-1.32,1.03-2.58,1.72-3.76.07-.14.11-.23.11-.26s.03-.12.1-.26c.21-.35.43-.69.68-1.04.24-.35.5-.69.78-1.04.07-.07.12-.14.16-.21.03-.07.12-.17.26-.31,2.23-2.86,5.19-5.19,8.88-7,.28-.14.45-.24.52-.31.49-.21.94-.4,1.36-.57.42-.17.87-.37,1.36-.57.07,0,.24-.07.52-.21,1.53-.56,3.15-1.01,4.86-1.36,1.71-.35,3.5-.66,5.38-.94h.52c.56-.14,1.15-.22,1.78-.26.63-.03,1.25-.09,1.88-.16h.94c.63-.07,1.27-.1,1.93-.1h27.84c12.75-.21,22.36,2.19,28.84,7.21.14.14.3.26.47.36.17.1.33.23.47.36.28.21.54.44.78.68.24.24.51.47.78.68.21.21.42.43.63.68s.42.47.63.68c.21.28.52.63.94,1.04l1.25,1.88c.07.14.14.28.21.42.07.14.17.28.31.42.21.35.4.71.57,1.1.17.38.37.78.57,1.2l.32.63c.14.49.3.94.47,1.36.17.42.33.87.47,1.36,0,.14.02.23.05.26s.05.12.05.26c.28.9.52,1.95.73,3.13v.31c.07.35.11.66.11.94s.03.59.1.94h-24.66l-.21-.42c-.21-.42-.45-.76-.73-1.04-.07-.14-.14-.22-.21-.26-.07-.03-.14-.12-.21-.26-.21-.28-.45-.52-.73-.73-.14-.21-.42-.45-.84-.73l-.42-.42c-3.55-2.65-8.67-3.9-15.36-3.76v-.11l-15.99.11h-2.61c-.35.07-.68.1-.99.1s-.65.04-.99.11h-.21c-2.02.28-3.83.7-5.43,1.25-.07,0-.12.02-.16.05-.04.03-.09.05-.16.05-.28.14-.52.24-.73.31-.21.07-.45.17-.73.31-.07,0-.12.02-.16.05-.04.04-.09.05-.16.05-1.88.9-3.45,2.16-4.7,3.76,0,.07-.07.17-.21.31s-.26.31-.37.52c-.1.21-.23.38-.36.52l-.11.21c-.77,1.39-1.29,2.82-1.57,4.28,0,.14-.03.25-.1.32,0,.28-.02.52-.05.73-.04.21-.09.46-.16.73v.42c0,.35-.02.64-.05.89-.04.25-.05.51-.05.78l.1,10.66v.1c0,.35.02.66.05.94s.09.59.16.94v.21l.31,1.57c.07.07.11.17.11.31.14.28.22.52.26.73.03.21.12.45.26.73,0,.07.01.12.05.16.03.03.05.09.05.16l.63,1.25c.14.14.24.28.32.42l.63.94c.14.14.22.25.26.31.03.07.12.17.26.32l.63.63c.14.14.37.33.68.57.31.25.54.44.68.57,2.93,2.3,7.14,3.55,12.64,3.76h14.94c3.2,0,6.27-.61,9.19-1.83,2.93-1.22,5.5-2.94,7.73-5.17l2.3-2.4h-33.23v-16.09h60.71v43.89h-23.72v-13.16l-6.06,6.16c-2.23,2.23-4.81,3.94-7.73,5.12-2.93,1.19-5.99,1.78-9.19,1.78-1.88,0-3.81.02-5.8.05-1.99.03-3.78.05-5.38.05h-5.64c-12.68.14-22.33-2.26-28.94-7.21-.14-.14-.28-.28-.42-.42s-.28-.28-.42-.42c-.49-.35-.99-.76-1.52-1.25-.52-.49-.96-.97-1.31-1.46-.42-.42-.73-.77-.94-1.04-.21-.35-.42-.66-.63-.94-.21-.28-.42-.59-.63-.94-.21-.28-.38-.56-.52-.84-.21-.35-.42-.71-.63-1.1-.21-.38-.38-.75-.52-1.1-.07-.21-.17-.45-.31-.73-.14-.42-.3-.85-.47-1.31-.17-.45-.33-.92-.47-1.41-.07-.07-.11-.14-.11-.21s-.03-.17-.1-.31c-.14-.49-.25-.98-.31-1.46-.07-.49-.17-1.01-.32-1.57,0-.21-.03-.35-.1-.42l-.31-3.45Z"/>
          <path class="cls-2" d="m671.96,161.63v-77.84h89.23v16.09h-65.51v14.84h60.6v16.09h-60.6v14.73h65.51v16.09h-89.23Z"/>
          <path class="cls-2" d="m868.19,111.37v.21l.11,20.06c0,.56-.02,1.08-.05,1.57-.03.49-.09,1.01-.16,1.57v.84c-.07.49-.12.96-.16,1.41s-.12.92-.26,1.41c-.07.14-.1.32-.1.52-.56,2.86-1.57,5.54-3.03,8.05-.07.07-.12.14-.16.21-.04.07-.09.14-.16.21-.21.35-.42.7-.63,1.04-.21.35-.46.7-.73,1.04-.21.21-.35.38-.42.52-2.3,2.86-5.36,5.22-9.19,7.1-.28.14-.49.21-.63.21-.49.21-.96.42-1.41.63s-.92.38-1.41.52c-.14.07-.23.1-.26.1-.04,0-.12.04-.26.11-1.6.56-3.28,1.03-5.01,1.41-1.74.38-3.59.68-5.54.89-.14.07-.32.1-.52.1l-3.76.31h-.94c-.7.07-1.38.12-2.04.16-.66.03-1.38.05-2.14.05h-21.42c-13.16.14-23.16-2.26-29.99-7.21-.14-.14-.3-.28-.47-.42-.17-.14-.33-.28-.47-.42-.28-.21-.54-.42-.78-.63-.25-.21-.51-.45-.78-.73-.28-.21-.51-.42-.68-.63-.17-.21-.36-.45-.57-.73-.14-.14-.3-.3-.47-.47-.17-.17-.33-.36-.47-.57-.28-.35-.52-.66-.73-.94-.21-.28-.42-.59-.63-.94-.14-.14-.23-.28-.26-.42-.03-.14-.12-.28-.26-.42-.21-.35-.42-.71-.63-1.1-.21-.38-.38-.78-.52-1.2l-.31-.63c-.21-.42-.4-.85-.58-1.31-.17-.45-.33-.92-.47-1.41,0-.07-.02-.14-.05-.21-.03-.07-.05-.17-.05-.31-.14-.49-.26-.98-.36-1.46-.11-.49-.23-1.01-.37-1.57v-.42c-.14-.56-.23-1.13-.26-1.73-.03-.59-.09-1.17-.16-1.72v-.11l-.11-20.17c0-.56.02-1.08.05-1.57.03-.49.05-1.01.05-1.57.07-.14.1-.38.1-.73.07-.56.12-1.06.16-1.51.03-.45.12-.92.26-1.41,0-.14.01-.22.05-.26.03-.03.05-.12.05-.26.63-2.85,1.64-5.54,3.03-8.05.14-.14.21-.28.21-.42.28-.35.52-.69.73-1.04.21-.35.45-.69.73-1.04.21-.21.35-.38.42-.52,2.37-2.93,5.43-5.26,9.19-7l.63-.31c.49-.21.96-.42,1.41-.63.45-.21.92-.38,1.41-.52.07-.07.14-.11.21-.11s.17-.03.31-.1c1.6-.56,3.27-1.03,5.01-1.41,1.74-.38,3.59-.68,5.54-.89.14,0,.23-.02.26-.05s.12-.05.26-.05l3.76-.32h.94c.7-.07,1.38-.1,2.04-.1h2.14l21.42-.1v.1c13.16-.21,23.13,2.16,29.88,7.1.28.21.59.49.94.84.63.42,1.18.87,1.67,1.36.21.21.42.43.63.68.21.24.42.47.63.68.14.14.3.31.47.52.17.21.33.38.47.52.28.35.52.66.73.94.21.28.42.59.63.94.07.14.24.42.52.84.21.35.42.71.63,1.1.21.38.38.78.52,1.2l.31.63c.21.42.4.86.58,1.31.17.45.33.92.47,1.41,0,.14.02.23.05.26.03.03.05.12.05.26.14.49.26.98.36,1.46.11.49.23,1.01.37,1.57v.42c.14.56.22,1.13.26,1.72.03.59.09,1.17.16,1.73Zm-23.72,17.76c.07-.28.1-.56.1-.84v-11.6c-.07-.35-.1-.66-.1-.94s-.04-.56-.11-.84v-.21c-.07-.35-.14-.64-.21-.89-.07-.24-.14-.5-.21-.78,0-.07-.02-.12-.05-.16s-.05-.09-.05-.16c-.07-.42-.24-.87-.52-1.36,0-.14-.02-.22-.05-.26-.04-.03-.05-.09-.05-.16-.28-.56-.49-.94-.63-1.15-.07-.14-.12-.22-.16-.26-.04-.03-.09-.12-.16-.26-.28-.42-.52-.73-.73-.94-.14-.21-.31-.38-.52-.52-.14-.21-.35-.45-.63-.73-.14-.21-.42-.45-.84-.73-.21-.21-.38-.35-.52-.42-3.48-2.58-8.78-3.87-15.88-3.87h-11.39c-.35,0-.72.02-1.1.05s-.75.05-1.1.05h-.42c-.35.07-.7.1-1.04.1s-.7.04-1.04.11h-.21c-1.04.14-2.04.3-2.98.47-.94.17-1.83.44-2.66.78-.07,0-.12.02-.16.05-.04.03-.09.05-.16.05-.28.14-.52.24-.73.31-.21.07-.45.17-.73.31-.07,0-.12.02-.16.05-.04.04-.09.05-.16.05-1.95.9-3.55,2.16-4.81,3.76l-.31.31c-.14.14-.26.31-.37.52-.1.21-.23.38-.36.52l-.1.21c-.63,1.11-1.19,2.54-1.67,4.28v.32c-.07.28-.12.52-.16.73-.04.21-.05.46-.05.73,0,.21-.03.35-.1.42v12.43c0,.35.02.66.05.94s.09.59.16.94v.21c.14.7.28,1.22.42,1.57,0,.14.03.25.11.31.07.28.14.52.21.73.07.21.17.45.31.73,0,.07.01.12.05.16.03.03.05.09.05.16.28.56.49.94.63,1.15.07.14.12.23.16.26s.09.12.16.26c.28.42.52.73.73.94.07.14.14.25.21.31.07.07.14.17.21.32.28.28.52.49.73.63.14.21.42.45.84.73.21.21.38.35.52.42,3.62,2.65,8.92,3.94,15.88,3.87h11.39c.35,0,.71-.01,1.1-.05.38-.03.75-.05,1.1-.05h.42c.35,0,.7-.02,1.04-.05s.7-.09,1.04-.16h.21c2.09-.21,3.97-.63,5.64-1.25.14,0,.24-.03.31-.1.21-.14.43-.23.68-.26s.51-.12.78-.26c.07-.07.12-.11.16-.11.03,0,.09-.03.16-.1,1.95-.9,3.55-2.16,4.81-3.76l.21-.21c.14-.21.28-.4.42-.57.14-.17.28-.37.42-.58l.1-.21c.7-1.25,1.22-2.68,1.57-4.29.07-.07.11-.17.11-.31.14-.56.21-1.04.21-1.46v-.42Z"/>
        </g>
        <path class="cls-1" d="m550.31,111.58v-.21c-.07-.56-.12-1.13-.16-1.72-.04-.59-.12-1.17-.26-1.72v-.42c-.14-.56-.26-1.08-.37-1.57-.1-.49-.23-.97-.37-1.46,0-.14-.02-.23-.05-.26-.04-.03-.05-.12-.05-.26-.14-.49-.3-.96-.47-1.41-.17-.45-.37-.89-.58-1.31l-.31-.63c-.14-.42-.31-.82-.52-1.2-.21-.38-.42-.75-.63-1.1-.28-.42-.45-.7-.52-.84-.21-.35-.42-.66-.63-.94-.21-.28-.45-.59-.73-.94-.14-.14-.3-.32-.47-.52-.18-.21-.33-.38-.47-.52-.21-.21-.42-.44-.63-.68-.21-.24-.42-.47-.63-.68-.49-.49-1.05-.94-1.67-1.36-.35-.35-.66-.63-.94-.84-6.76-4.95-16.72-7.31-29.88-7.1v-.1l-21.42.1h-2.14c-.66,0-1.34.04-2.04.1h-.94l-3.76.32c-.14,0-.23.02-.26.05-.04.03-.12.05-.26.05-1.95.21-3.8.51-5.54.89-1.74.38-3.41.86-5.02,1.41-.14.07-.24.1-.31.1s-.14.04-.21.11c-.49.14-.96.31-1.41.52-.46.21-.93.42-1.41.63l-.63.31c-3.76,1.74-6.83,4.08-9.19,7-.07.14-.21.31-.42.52-.28.35-.52.7-.73,1.04-.21.35-.45.7-.73,1.04,0,.14-.07.28-.21.42-1.39,2.51-2.4,5.19-3.03,8.05,0,.14-.02.23-.05.26-.04.04-.05.12-.05.26-.14.49-.23.96-.26,1.41-.04.45-.09.96-.16,1.51,0,.35-.03.59-.1.73,0,.56-.02,1.08-.05,1.57-.04.49-.05,1.01-.05,1.57l.1,18.9,3.66-1.71h.02s1.99-.94,1.99-.94h0s4.66-2.14,4.66-2.14l.03-.03c3.34-1.63,6.62-4.03,9.52-7.14,2.68-2.88,4.72-6.04,6.12-9.24.9-3.79,2.79-7.13,5.74-9.6,1.17-.98,2.45-1.78,3.82-2.4,2.61-1.43,6.12-2.81,10.07-3.87,8.85-2.37,16.57-2.24,17.26.3l-15.54,13.04c-3.55,2.97-4.01,8.31-1.04,11.85l5.77,6.88c2.98,3.55,8.31,4.01,11.85,1.04l15.88-13.32s.04.02.07.03c2.38,1.11,1.17,8.75-2.7,17.06-2.27,4.86-4.94,8.87-7.25,11.14-.53.6-1.11,1.17-1.74,1.7-5.49,4.6-13.31,5.13-20.86,2.21-3.62-.78-7.63-.97-11.79-.36-1.8.26-3.54.66-5.18,1.16l-15.19,7h0s-1.95.89-1.95.89c6.65,3.72,15.7,5.52,27.14,5.4h21.42c.76,0,1.48-.02,2.14-.05.66-.03,1.34-.09,2.04-.16h.94l3.76-.31c.21,0,.38-.03.52-.1,1.95-.21,3.8-.51,5.54-.89,1.74-.38,3.41-.85,5.01-1.41.14-.07.22-.11.26-.11.03,0,.12-.03.26-.1.49-.14.96-.31,1.41-.52.45-.21.93-.42,1.41-.63.14,0,.35-.07.63-.21,3.83-1.88,6.89-4.25,9.19-7.1.07-.14.21-.32.42-.52.28-.35.52-.7.73-1.04.21-.35.42-.7.63-1.04.07-.07.12-.14.16-.21.03-.07.09-.14.15-.21,1.46-2.51,2.47-5.19,3.03-8.05,0-.21.03-.38.1-.52.14-.49.23-.96.26-1.41.04-.45.09-.92.16-1.41v-.84c.07-.56.12-1.08.16-1.57.03-.49.05-1.01.05-1.57l-.11-20.06Z"/>
      </g>
    </g>
  </g>
</svg>